<?xml version="1.0" encoding="iso-8859-1"?>
<!-- Generator: Adobe Illustrator 19.0.0, SVG Export Plug-In . SVG Version: 6.00 Build 0)  -->
<svg version="1.1" id="Layer_1" xmlns="http://www.w3.org/2000/svg" xmlns:xlink="http://www.w3.org/1999/xlink" x="0px" y="0px"
	 viewBox="0 0 512 512" style="enable-background:new 0 0 512 512;" xml:space="preserve">
<path style="fill:#2D527C;" d="M438.56,512H19.788c-8.214,0-14.876-6.661-14.876-14.876V256.915c0-8.214,6.661-14.876,14.876-14.876
	s14.876,6.661,14.876,14.876v225.333h389.021v-32.833c0-8.214,6.661-14.876,14.876-14.876s14.876,6.661,14.876,14.876v47.709
	C453.436,505.339,446.775,512,438.56,512z"/>
<g>
	<polygon style="fill:#CEE8FA;" points="19.788,177.122 19.788,172.332 175.584,14.876 175.584,177.122 	"/>
	<rect x="196.157" y="219.435" style="fill:#CEE8FA;" width="296.061" height="163.65"/>
</g>
<g>
	<path style="fill:#2D527C;" d="M492.218,204.559h-38.782V14.876C453.436,6.661,446.775,0,438.56,0H175.584
		c-0.184,0-0.366,0.021-0.549,0.028c-0.164,0.006-0.326,0.013-0.488,0.024c-0.647,0.046-1.29,0.119-1.919,0.247
		c-0.003,0-0.006,0.001-0.009,0.001c-0.629,0.128-1.244,0.309-1.849,0.518c-0.15,0.052-0.299,0.106-0.448,0.162
		c-0.592,0.225-1.175,0.475-1.735,0.772c-0.013,0.007-0.028,0.012-0.042,0.019c-0.571,0.306-1.114,0.663-1.642,1.044
		c-0.132,0.095-0.263,0.193-0.393,0.295c-0.524,0.403-1.031,0.829-1.5,1.303L9.213,161.87c-0.35,0.353-0.678,0.721-0.988,1.104
		c-0.202,0.25-0.381,0.512-0.565,0.771c-0.097,0.135-0.202,0.265-0.295,0.403c-0.211,0.32-0.399,0.65-0.583,0.982
		c-0.049,0.088-0.106,0.173-0.153,0.262c-0.18,0.341-0.338,0.692-0.489,1.043c-0.039,0.091-0.086,0.177-0.123,0.269
		c-0.137,0.336-0.251,0.678-0.363,1.02c-0.039,0.118-0.085,0.231-0.12,0.35c-0.094,0.315-0.165,0.634-0.238,0.954
		c-0.036,0.155-0.079,0.305-0.11,0.46c-0.057,0.293-0.092,0.588-0.131,0.882c-0.025,0.186-0.06,0.369-0.077,0.556
		c-0.027,0.287-0.031,0.574-0.043,0.861c-0.006,0.183-0.027,0.363-0.027,0.546v4.792c0,8.214,6.661,14.876,14.876,14.876h155.796
		c8.214,0,14.876-6.661,14.876-14.876V29.752h233.231v174.807H196.157c-8.215,0-14.876,6.661-14.876,14.876v163.644
		c0,8.214,6.661,14.876,14.876,14.876h296.061c8.215,0,14.876-6.661,14.876-14.876V219.435
		C507.094,211.219,500.432,204.559,492.218,204.559z M160.708,162.246H50.693L160.708,51.06V162.246z M477.342,368.203H211.033
		V234.311h266.309V368.203z"/>
	<path style="fill:#2D527C;" d="M282.683,316.639c-1.586,2.685-4.025,3.538-6.343,3.538c-2.197,0-4.513-0.73-5.979-3.538
		l-11.588-21.225v46.963c0,3.903-4.757,5.855-9.515,5.855s-9.515-1.952-9.515-5.855v-73.8c0-6.954,4.757-9.515,9.515-9.515
		c6.831,0,9.759,0.732,14.76,9.515l12.564,21.957l12.563-21.957c5.001-8.783,7.929-9.515,14.761-9.515
		c4.878,0,9.515,2.562,9.515,9.515v73.8c0,3.903-4.757,5.855-9.515,5.855s-9.515-1.952-9.515-5.855v-45.745L282.683,316.639z"/>
	<path style="fill:#2D527C;" d="M326.597,264.796c0-3.051,2.806-5.733,7.075-5.733h25.25c16.102,0,28.789,7.563,28.789,28.056v0.61
		c0,20.493-13.174,28.3-30.008,28.3h-12.076v26.348c0,3.903-4.757,5.855-9.515,5.855s-9.515-1.952-9.515-5.855v-77.581H326.597z
		 M345.626,275.653v25.738h12.076c6.831,0,10.978-3.903,10.978-12.198v-1.34c0-8.295-4.147-12.198-10.978-12.198h-12.076V275.653z"
		/>
	<path style="fill:#2D527C;" d="M432.232,321.396v-2.318c0-8.173-5.001-9.76-11.71-9.76c-4.147,0-5.489-3.659-5.489-7.319
		c0-3.659,1.342-7.319,5.489-7.319c4.635,0,9.515-0.61,9.515-10.491c0-7.077-4.025-8.783-9.025-8.783
		c-5.979,0-9.027,1.464-9.027,6.221c0,4.147-1.83,6.954-8.905,6.954c-8.781,0-9.881-1.83-9.881-7.685
		c0-9.515,6.831-21.836,27.812-21.836c15.492,0,27.202,5.611,27.202,22.079c0,8.905-3.294,17.201-9.393,20.005
		c7.197,2.685,12.442,8.051,12.442,17.933v2.318c0,20.005-13.786,27.568-30.862,27.568c-20.981,0-29.033-12.808-29.033-23.055
		c0-5.489,2.319-6.953,9.027-6.953c7.807,0,9.759,1.706,9.759,6.343c0,5.733,5.367,7.075,10.858,7.075
		C429.305,332.375,432.232,329.325,432.232,321.396z"/>
</g>
<g>
</g>
<g>
</g>
<g>
</g>
<g>
</g>
<g>
</g>
<g>
</g>
<g>
</g>
<g>
</g>
<g>
</g>
<g>
</g>
<g>
</g>
<g>
</g>
<g>
</g>
<g>
</g>
<g>
</g>
</svg>
